<?xml version="1.0" encoding="UTF-8"?>
<svg width="73px" height="65px" viewBox="0 0 73 65" version="1.1" xmlns="http://www.w3.org/2000/svg" xmlns:xlink="http://www.w3.org/1999/xlink">
    <!-- Generator: Sketch 47.1 (45422) - http://www.bohemiancoding.com/sketch -->
    <title>alert</title>
    <desc>Created with Sketch.</desc>
    <defs>
        <linearGradient x1="50%" y1="5.45875918%" x2="50%" y2="100%" id="linearGradient-1">
            <stop stop-color="#9B9B9B" offset="0%"></stop>
            <stop stop-color="#686868" offset="66.7430644%"></stop>
            <stop stop-color="#4C4C4C" offset="100%"></stop>
        </linearGradient>
    </defs>
    <g id="Page-1" stroke="none" stroke-width="1" fill="none" fill-rule="evenodd">
        <g id="alert" fill-rule="nonzero" fill="url(#linearGradient-1)">
            <path d="M41.325,3 C40.225,1.1 38.325,0 36.125,0 C33.925,0 32.025,1.1 30.925,3 L0.825,55.9 C-0.275,57.8 -0.275,60 0.825,61.9 C1.925,63.8 3.825,64.9 6.025,64.9 L66.225,64.9 C68.425,64.9 70.325,63.8 71.425,61.9 C72.525,60 72.525,57.8 71.425,55.9 L41.325,3 Z M67.925,59.9 C67.725,60.2 67.225,60.9 66.225,60.9 L6.025,60.9 C5.025,60.9 4.425,60.2 4.325,59.9 C4.125,59.6 3.825,58.8 4.325,57.9 L34.425,5 C34.925,4.1 35.825,4 36.125,4 C36.425,4 37.325,4.1 37.825,5 L67.925,57.9 C68.525,58.8 68.125,59.6 67.925,59.9 Z M36,24 C34.9,24 34,24.9 34,26 L34,40 C34,41.1 34.9,42 36,42 C37.1,42 38,41.1 38,40 L38,26 C38,24.9 37.1,24 36,24 Z M36,46 C34.9,46 34,46.9 34,48 L34,51 C34,52.1 34.9,53 36,53 C37.1,53 38,52.1 38,51 L38,48 C38,46.9 37.1,46 36,46 Z" id="Combined-Shape"></path>
        </g>
    </g>
</svg>