<svg width="256" height="256" viewBox="0 0 256 256" xmlns="http://www.w3.org/2000/svg">
  <title>
    Artboard
  </title>
  <defs>
    <linearGradient x1="97.3174426%" y1="16.313909%" x2="2.03483737%" y2="98.2501843%" id="a">
      <stop stop-color="#239EC8" offset="0%"/>
      <stop stop-color="#44C9C5" offset="100%"/>
    </linearGradient>
    <linearGradient x1=".66764987%" y1=".66764987%" x2="98.2023278%" y2="98.2023278%" id="b">
      <stop stop-color="#FB679E" offset="0%"/>
      <stop stop-color="#FB816F" offset="100%"/>
    </linearGradient>
    <linearGradient x1="0%" y1="0%" y2="100%" id="c">
      <stop stop-color="#7B61FA" offset="0%"/>
      <stop stop-color="#9A50EF" offset="100%"/>
    </linearGradient>
  </defs>
  <g fill="none" fill-rule="evenodd">
    <path d="M128 254.5c-.828427 0-1.5-.671573-1.5-1.5s.671573-1.5 1.5-1.5c5.306721 0 10.57152-.33461 15.773523-.99769.821778-.104749 1.572876.476518 1.677625 1.298296.104749.821778-.476518 1.572876-1.298296 1.677625C138.825121 254.157338 133.433626 254.5 128 254.5z" fill="url(#a)"/>
    <path d="M153.148593 251.999881c5.310419-1.071244 10.530664-2.481167 15.635059-4.21863.78424-.266945 1.203591-1.119098.936647-1.903338-.266944-.78424-1.119097-1.203591-1.903337-.936646-4.982417 1.695944-10.077923 3.072176-15.261594 4.117852-.812069.163814-1.337583.954924-1.173769 1.766993.163815.81207.954925 1.337584 1.766994 1.173769zm24.141255-7.462604c4.978507-2.108259 9.813181-4.534319 14.476317-7.261221.715127-.418191.955842-1.336927.537651-2.052055-.418192-.715128-1.336928-.955842-2.052056-.537651-4.552301 2.662088-9.271899 5.030402-14.131758 7.088418-.762846.323044-1.119376 1.203332-.796332 1.966178.323044.762846 1.203332 1.119375 1.966178.796331z" fill="url(#b)"/>
    <path d="M199.480596 232.382782c4.453484-3.055503 8.708388-6.393291 12.737765-9.990867.617961-.551738.671646-1.499967.119907-2.117929-.551738-.617961-1.499967-.671645-2.117929-.119907-3.934305 3.512692-8.088747 6.771673-12.436965 9.754953-.683107.468675-.856939 1.402379-.388264 2.085486.468675.683107 1.402378.856939 2.085486.388264z" fill="#454270"/>
    <path d="M218.767816 216.110585c3.763518-3.876307 7.277049-7.988964 10.517076-12.311522.496871-.662881.362293-1.603045-.300588-2.099916-.662881-.49687-1.603045-.362293-2.099916.300588-3.16354 4.220515-6.594196 8.236166-10.268975 12.021076-.577076.59437-.563056 1.544014.031314 2.121089s1.544014.563055 2.121089-.031315z" fill="url(#c)"/>
    <path d="M234.496144 196.298551c2.920466-4.544498 5.54774-9.272141 7.863635-14.155147.355-.748509.035998-1.64308-.712512-1.998081-.748509-.355-1.64308-.035998-1.998081.712512-2.260795 4.766831-4.825649 9.382153-7.676829 13.818835-.44787.696925-.245972 1.624964.450953 2.072834.696924.44787 1.624964.245972 2.072834-.450953z" fill="#454270"/>
    <path d="M245.977724 173.738507c1.951162-5.029346 3.579011-10.186006 4.871242-15.443687.197726-.804485-.294149-1.616937-1.098634-1.814663-.804485-.197726-1.616937.294149-1.814663 1.098634-1.261356 5.132058-2.850295 10.165459-4.75484 15.074646-.299634.772341.083571 1.641349.855913 1.940983.772341.299634 1.641348-.083571 1.940982-.855913zm6.723979-24.3651c.902136-5.300989 1.468-10.676064 1.690457-16.102627.033933-.827732-.609569-1.526249-1.437301-1.560181-.827732-.033932-1.526249.60957-1.560181 1.437302-.217224 5.29891-.769711 10.546918-1.650453 15.722194-.138986.816685.410398 1.591409 1.227083 1.730395.816685.138986 1.591409-.410398 1.730395-1.227083z" fill="url(#a)"/>
    <path d="M254.445692 124.257681c-.157795-5.430105-.658927-10.811467-1.496534-16.121759-.129074-.81831-.897081-1.377046-1.715391-1.247971-.81831.129074-1.377046.89708-1.247972 1.715391.817768 5.184519 1.307072 10.438866 1.461163 15.741481.024063.828077.71486 1.479859 1.542938 1.455796.828077-.024063 1.47986-.71486 1.455796-1.542938z" fill="#454270"/>
    <path d="M251.203711 99.1872503c-1.228605-5.2739945-2.793806-10.4501198-4.683637-15.50225-.290245-.7759185-1.154541-1.1696346-1.93046-.8793897-.775918.2902449-1.169634 1.1545411-.879389 1.9304595 1.844674 4.9314102 3.372462 9.9838124 4.571718 15.1318216.187954.8068243.994381 1.3085173 1.801205 1.1205633.806824-.187954 1.308517-.9943808 1.120563-1.8012047zm-8.178505-23.9046682c-2.254643-4.9114949-4.822551-9.6710784-7.685904-14.2509886-.439166-.7024421-1.364622-.9158697-2.067064-.476704-.702442.4391658-.91587 1.3646218-.476704 2.0670639 2.795384 4.4711946 5.302249 9.1176359 7.503223 13.9122174.345617.7528881 1.236131 1.0830469 1.989019.7374303.752888-.3456167 1.083047-1.2361308.73743-1.989019z" fill="url(#c)"/>
    <path d="M230.210213 53.451306c-3.18659-4.3616182-6.6493-8.5166335-10.364902-12.4384398-.569763-.6013831-1.519164-.6270162-2.120547-.0572532-.601383.569763-.627017 1.5191645-.057254 2.1205476 3.62798 3.8293215 7.008993 7.8863065 10.120332 12.144925.488711.6689192 1.427156.8150067 2.096075.3262956.668919-.4887111.815007-1.427156.326296-2.0960752z" fill="#454270"/>
    <path d="M213.385333 34.6630364c-1.522903-1.3939199-3.07952-2.7505881-4.668379-4.0686783-2.57258-2.1338258-5.221106-4.1604448-7.947115-6.0808098-.677252-.477097-1.613037-.3148394-2.090134.3624124-.477097.6772518-.314839 1.6130364.362413 2.0901333 2.661579 1.8749766 5.247549 3.8537283 7.759489 5.9372568 1.55129 1.2869226 3.071196 2.6115964 4.558191 3.9726491.611093.5593361 1.559913.5173788 2.119249-.0937142.559336-.611093.517379-1.5599132-.093714-2.1192493zm-20.260281-15.1330072c-4.627841-2.7844477-9.430612-5.270381-14.380587-7.4404833-.758716-.3326265-1.643425.0127879-1.976051.7715046-.332627.7587168.012787 1.6434253.771504 1.9760518 4.832064 2.1184094 9.52058 4.5452039 14.038485 7.2635062.709846.4270952 1.631519.1978805 2.058614-.5119653.427096-.7098459.197881-1.6315188-.511965-2.058614z" fill="url(#b)"/>
    <path d="M170.274295 8.73662047c-5.082583-1.8016428-10.284416-3.2769731-15.579634-4.41451-.809949-.17399595-1.607594.34154562-1.78159 1.15149433-.173996.8099487.341546 1.60759346 1.151494 1.7815894 5.168781 1.1103751 10.246292 2.55044565 15.207416 4.3090345.780823.2767811 1.63818-.1318251 1.914961-.9126475.276781-.78082246-.131825-1.63817958-.912647-1.91496073z" fill="#454270"/>
    <path d="M145.716871 2.7310478c-5.321934-.7459453-10.710707-1.15526545-16.144379-1.22147236-.828366-.01009327-1.508071.65324755-1.518165 1.48161318-.010093.82836564.653248 1.50807088 1.481614 1.51816415 5.306474.06465705 10.568368.46433977 15.764508 1.19265318.820407.11499186 1.578698-.45686046 1.69369-1.2772679.114992-.82040745-.45686-1.5786984-1.277268-1.69369026z" fill="url(#c)"/>
    <path d="M120.450575 1.72159655c-5.419846.31906234-10.784048.98151605-16.069615 1.9798155-.814035.15374897-1.349302.9382928-1.195553 1.75232765.153749.81403486.938292 1.34930232 1.752327 1.19555333 5.160007-.9745845 10.397128-1.62134435 15.689144-1.9328814.826995-.0486846 1.457941-.75856346 1.409256-1.5855588-.048685-.82699536-.758563-1.45794088-1.585559-1.40925628z" fill="url(#a)"/>
    <path d="M95.4821487 5.71899143c-5.2318477 1.3877113-10.3578932 3.1094722-15.3516064 5.15245927-.7667426.3136835-1.1340196 1.1895419-.8203361 1.9562844.3136834.7667426 1.1895418 1.1340196 1.9562844.8203362 4.8744401-1.9941911 9.8779707-3.67480114 14.9847913-5.02934988.8007384-.21239028 1.2776887-1.0336933 1.0652984-1.83443162-.2123903-.80073833-1.0336933-1.27768865-1.8344316-1.06529837z" fill="#454270"/>
    <path d="M71.8372615 14.6200777c-4.8402341 2.402164-9.5202377 5.1128147-14.0122354 8.113254-.688884.4601416-.8743165 1.3916109-.4141749 2.080495.4601416.688884 1.3916109.8743165 2.0804949.4141749 4.3855082-2.9293094 8.9544113-5.575611 13.6795763-7.9206672.7420654-.3682803 1.0450782-1.2683933.6767979-2.0104588-.3682803-.7420654-1.2683934-1.0450782-2.0104588-.6767979zM50.4001446 28.0901733c-4.2636417 3.3162836-8.3126969 6.9020785-12.1209821 10.733472-.5840119.5875557-.5811391 1.5372988.0064165 2.1213107.5875556.5840119 1.5372987.5811391 2.1213106-.0064165 3.7185067-3.7410703 7.672085-7.2423119 11.8351176-10.4803413.653912-.5086163.7716975-1.4510317.2630812-2.1049438-.5086164-.653912-1.4510318-.7716974-2.1049438-.2630811z" fill="url(#c)"/>
    <path d="M32.1268111 45.4704822c-3.5259937 4.0924216-6.7881175 8.4057723-9.7643167 12.9129214-.4564908.6913086-.2661334 1.6217839.4251753 2.0782748.6913086.4564908 1.6217839.2661334 2.0782747-.4251753 2.9058075-4.4005479 6.0908686-8.6120024 9.5336337-12.6078253.5407408-.6276073.4703216-1.5747405-.1572857-2.1154813-.6276072-.5407408-1.5747405-.4703216-2.1154813.1572857z" fill="#454270"/>
    <path d="M17.6032056 66.190199c-2.6426223 4.709923-4.9814764 9.5863655-7.0001375 14.601709-.3093238.7685117.0629217 1.64227.8314334 1.9515938.7685118.3093237 1.6422701-.0629217 1.9515938-.8314335 1.9705216-4.8957412 4.2536645-9.6560277 6.8334279-14.2539176.4053637-.7224762.1482932-1.636771-.574183-2.0421347-.7224761-.4053637-1.6367709-.1482932-2.0421346.574183z" fill="url(#b)"/>
    <path d="M7.4963276 89.404343c-1.6428968 5.1336371-2.95672264 10.3781352-3.9308413 15.708127-.14893784.814928.39095454 1.596297 1.2058834 1.745235.81492883.148937 1.59629716-.390955 1.745235-1.205884.95088655-5.202874 2.23333134-10.3221064 3.8369739-15.3330837.252503-.789008-.1824203-1.6333196-.97142836-1.8858226-.78900806-.252503-1.63331962.1824203-1.88582263.9714283z" fill="#454270"/>
    <path d="M2.26424296 114.016482c-.50789565 4.618036-.76394413 9.281087-.7642427 13.975298-.6e-7.737585.00617414 1.46728.01856244 2.197224.0140577.828308.69692987 1.488388 1.5252377 1.474331.82830786-.014058 1.48838803-.69693 1.47433035-1.525238-.01209993-.712953-.01813075-1.425678-.0181305-2.146221.0002916-4.584559.25033174-9.138189.74626197-13.647429.09056507-.823462-.5035652-1.564427-1.32702707-1.654992-.82346188-.090565-1.56442712.503565-1.6549922 1.327027z" fill="url(#a)"/>
    <path d="M1.99710853 139.290793c.4781673 5.405229 1.2994169 10.747828 2.45549812 16.004181.1779509.809089.9781048 1.320727 1.78719378 1.142776.809089-.177951 1.3207275-.978104 1.1427766-1.787193-1.12855536-5.131201-1.93029167-10.346858-2.39713882-15.624123-.07300073-.825205-.80113992-1.434986-1.6263444-1.361985-.82520443.073-1.434986.801139-1.36198525 1.626344zm4.73890997 24.842272c1.54353683 5.187796 3.4185039 10.261807 5.6112037 15.195126.3364707.75702 1.2229199 1.097942 1.9799397.761472.7570198-.336471 1.0979422-1.22292.7614715-1.97994-2.1403649-4.815572-3.970539-9.768364-5.47719043-14.83219-.2362485-.794026-1.07145145-1.246195-1.865478-1.009946-.79402653.236248-1.24619497 1.071451-1.00994646 1.865478zm9.599089 23.360168c2.5451609 4.767258 5.3939526 9.366054 8.5268161 13.768646.4803102.674977 1.4168553.832785 2.091832.352475.6749768-.48031.8327852-1.416855.352475-2.091832-3.0586854-4.29835-5.8399371-8.788116-8.3246692-13.442187-.3901611-.730798-1.2988781-1.006939-2.0296761-.616778-.7307981.390161-1.0069389 1.298878-.6167778 2.029676z" fill="url(#c)"/>
    <path d="M30.4285687 208.516691c3.4403503 4.164385 7.1435561 8.106459 11.0850754 11.800505.6044547.566504 1.5537037.535738 2.1202071-.068716.5665033-.604455.5357377-1.553704-.068717-2.120208-3.8486093-3.60697-7.4645229-7.456121-10.8237365-11.522293-.5276287-.63867-1.4731007-.728687-2.1117708-.201059-.63867.527629-.7286869 1.473101-.2010582 2.111771z" fill="url(#b)"/>
    <path d="M48.3463276 226.278056c4.1957605 3.404778 8.6047721 6.538916 13.199628 9.381115.7045361.435799 1.62896.217944 2.0647586-.486592.4357985-.704537.2179437-1.62896-.4865924-2.064759-4.4860566-2.7749-8.7908065-5.834924-12.8874472-9.159268-.6432747-.522005-1.5879205-.423696-2.1099254.219578-.5220049.643275-.4236963 1.587921.2195784 2.109926zm21.1440074 13.906388c4.7860523 2.501218 9.7303666 4.693839 14.8054901 6.562314.7774138.286216 1.6396556-.111979 1.925871-.889393.2862154-.777414-.1119796-1.639656-.8893934-1.925871-4.9539835-1.823876-9.7803908-3.96421-14.4524593-6.405859-.7342098-.383702-1.6404566-.099559-2.0241588.634651-.3837021.73421-.0995595 1.640456.6346504 2.024158zm23.5104307 9.411089c5.1781859 1.487774 10.4592063 2.644205 15.8182173 3.45945.819004.124592 1.583941-.43834 1.708533-1.257345.124592-.819004-.438341-1.58394-1.257345-1.708532-5.231421-.795836-10.3864393-1.924675-15.4409739-3.376922-.7962149-.228765-1.6271252.231244-1.8558902 1.027458-.228765.796215.2312439 1.627126 1.0274588 1.855891zm24.7474783 4.494986c-.825775-.066237-1.441502-.789355-1.375266-1.61513.066237-.825775.789356-1.441502 1.615131-1.375265 3.314339.265849 6.650167.399622 10.002324.399876.828427.000062 1.499949.671686 1.499886 1.500113-.000062.828427-.671686 1.499949-1.500113 1.499887-3.432155-.00026-6.847926-.137239-10.241962-.409481z" fill="#454270"/>
  </g>
</svg>
