<?xml version="1.0" encoding="UTF-8"?>
<svg width="90px" height="90px" viewBox="0 0 90 90" version="1.1" xmlns="http://www.w3.org/2000/svg" xmlns:xlink="http://www.w3.org/1999/xlink">
    <!-- Generator: Sketch 46.2 (44496) - http://www.bohemiancoding.com/sketch -->
    <title>Artboard</title>
    <desc>Created with Sketch.</desc>
    <defs>
        <linearGradient x1="-3.49816542%" y1="50%" x2="100%" y2="50%" id="linearGradient-1">
            <stop stop-color="#4CECA4" offset="0%"></stop>
            <stop stop-color="#50E0EF" offset="27.6745855%"></stop>
            <stop stop-color="#75C9F9" offset="49.9501754%"></stop>
            <stop stop-color="#C197F5" offset="76.4528858%"></stop>
            <stop stop-color="#DDACF6" offset="100%"></stop>
        </linearGradient>
    </defs>
    <g id="Page-1" stroke="none" stroke-width="1" fill="none" fill-rule="evenodd">
        <g id="Artboard" fill-rule="nonzero" fill="url(#linearGradient-1)">
            <path d="M84.002,22.617 C83.997,22.595 83.991,22.574 83.984,22.552 C83.976,22.531 83.968,22.511 83.959,22.491 C83.954,22.481 83.954,22.47 83.949,22.462 C83.944,22.454 83.934,22.448 83.928,22.44 C83.916,22.422 83.904,22.407 83.89,22.389 C83.874,22.371 83.859,22.356 83.84,22.34 C83.822,22.324 83.805,22.311 83.785,22.297 C83.777,22.293 83.773,22.285 83.765,22.28 L45.283,0.062 C45.265,0.052 45.246,0.051 45.228,0.043 C45.194,0.028 45.161,0.016 45.124,0.009 C45.102,0.004 45.08,0.002 45.058,0.001 C45.041,0 45.026,0 45.009,0 C44.985,0.002 44.96,0.005 44.936,0.01 C44.905,0.016 44.876,0.028 44.847,0.039 C44.826,0.048 44.803,0.049 44.783,0.06 L6.251,22.279 C6.242,22.284 6.238,22.293 6.23,22.298 C6.21,22.311 6.194,22.324 6.176,22.34 C6.158,22.356 6.144,22.371 6.128,22.388 C6.113,22.405 6.101,22.421 6.088,22.44 C6.082,22.449 6.073,22.454 6.068,22.462 C6.063,22.47 6.063,22.482 6.058,22.491 C6.048,22.511 6.04,22.53 6.033,22.551 C6.026,22.573 6.02,22.596 6.015,22.618 C6.01,22.64 6.007,22.662 6.006,22.683 C6.005,22.693 6,22.703 6,22.712 L6,67.243 C6,67.264 6.01,67.282 6.012,67.302 C6.016,67.337 6.022,67.371 6.033,67.406 C6.042,67.428 6.051,67.449 6.061,67.47 C6.069,67.485 6.076,67.497 6.084,67.511 C6.097,67.531 6.111,67.55 6.127,67.569 C6.149,67.594 6.175,67.614 6.202,67.634 C6.219,67.648 6.23,67.665 6.25,67.677 L44.781,89.896 C44.782,89.896 44.783,89.896 44.784,89.897 C44.791,89.901 44.8,89.9 44.806,89.904 C44.874,89.938 44.949,89.963 45.031,89.963 C45.113,89.963 45.187,89.939 45.255,89.904 C45.264,89.9 45.273,89.9 45.28,89.895 L45.281,89.895 L83.765,67.676 C83.783,67.665 83.793,67.65 83.809,67.637 C83.838,67.616 83.866,67.594 83.889,67.568 C83.905,67.549 83.918,67.531 83.931,67.511 C83.94,67.497 83.947,67.485 83.954,67.47 C83.965,67.449 83.974,67.428 83.982,67.405 C83.993,67.373 83.998,67.34 84.003,67.304 C84.005,67.283 84.015,67.265 84.015,67.243 L84.015,22.713 C84.015,22.703 84.01,22.693 84.009,22.684 C84.01,22.661 84.007,22.641 84.002,22.617 Z M60.751,53.484 L45.532,44.643 L45.532,27.051 L60.751,35.892 L60.751,53.484 Z M45.033,45.51 L60.255,54.353 L45.033,63.152 L29.767,54.353 L45.033,45.51 Z M61.251,35.025 L45.284,25.749 C45.275,25.744 45.264,25.744 45.255,25.739 C45.235,25.729 45.217,25.721 45.195,25.715 C45.173,25.706 45.15,25.699 45.126,25.695 C45.105,25.691 45.083,25.688 45.062,25.687 C45.052,25.686 45.043,25.681 45.034,25.681 C45.025,25.681 45.015,25.686 45.006,25.687 C44.984,25.688 44.963,25.691 44.941,25.695 C44.918,25.699 44.894,25.707 44.871,25.715 C44.851,25.722 44.832,25.73 44.813,25.739 C44.804,25.744 44.792,25.744 44.784,25.749 L28.769,35.025 L24.285,32.419 L45.035,20.523 L65.738,32.418 L61.251,35.025 Z M23.783,33.285 L28.267,35.891 L28.267,54.353 C28.267,54.364 28.273,54.373 28.273,54.382 C28.275,54.404 28.277,54.425 28.282,54.446 C28.286,54.469 28.292,54.491 28.3,54.514 C28.308,54.535 28.316,54.554 28.325,54.574 C28.33,54.584 28.33,54.595 28.335,54.603 C28.339,54.61 28.348,54.613 28.352,54.62 C28.366,54.641 28.379,54.659 28.395,54.678 C28.417,54.703 28.443,54.723 28.47,54.743 C28.487,54.757 28.498,54.774 28.518,54.786 L44.534,64.016 L44.534,69.143 L23.784,57.204 L23.784,33.285 L23.783,33.285 Z M67.23,32.387 C67.229,32.364 67.225,32.342 67.221,32.32 C67.216,32.298 67.21,32.277 67.203,32.256 C67.195,32.235 67.187,32.215 67.178,32.195 C67.173,32.185 67.173,32.174 67.168,32.166 C67.163,32.158 67.153,32.151 67.147,32.143 C67.135,32.125 67.123,32.11 67.108,32.093 C67.093,32.075 67.077,32.06 67.059,32.044 C67.041,32.028 67.024,32.015 67.004,32.001 C66.996,31.996 66.992,31.988 66.983,31.983 L45.533,19.658 L45.533,12.47 L73.408,28.579 L73.408,60.797 L67.236,57.206 L67.236,32.416 C67.236,32.406 67.231,32.397 67.23,32.387 Z M73.907,27.713 L45.283,11.171 C45.274,11.166 45.264,11.166 45.256,11.162 C45.236,11.152 45.218,11.143 45.197,11.137 C45.173,11.128 45.149,11.122 45.124,11.117 C45.103,11.113 45.085,11.111 45.064,11.109 C45.053,11.109 45.044,11.103 45.033,11.103 C45.023,11.103 45.015,11.108 45.007,11.109 C44.983,11.11 44.96,11.113 44.936,11.119 C44.915,11.123 44.897,11.129 44.876,11.135 C44.854,11.143 44.832,11.151 44.811,11.162 C44.802,11.166 44.792,11.166 44.784,11.171 L16.112,27.713 L7.501,22.715 L45.033,1.071 L82.519,22.714 L73.907,27.713 Z M23.285,58.072 L44.784,70.443 L44.785,70.443 C44.793,70.447 44.802,70.447 44.809,70.451 C44.876,70.485 44.951,70.51 45.033,70.51 C45.115,70.51 45.189,70.486 45.258,70.451 C45.265,70.447 45.274,70.448 45.281,70.444 C45.281,70.443 45.282,70.443 45.283,70.443 L66.735,58.072 L72.912,61.665 L45.033,77.776 L17.108,61.664 L23.285,58.072 Z M7.001,23.582 L15.61,28.579 L15.61,61.666 C15.61,61.676 15.616,61.686 15.616,61.695 C15.617,61.717 15.62,61.739 15.625,61.761 C15.63,61.783 15.636,61.805 15.643,61.826 C15.651,61.847 15.659,61.867 15.668,61.887 C15.673,61.897 15.673,61.908 15.678,61.916 C15.683,61.923 15.691,61.926 15.696,61.933 C15.709,61.953 15.721,61.971 15.737,61.99 C15.76,62.016 15.788,62.038 15.817,62.059 C15.833,62.072 15.843,62.087 15.861,62.098 L15.865,62.1 C15.865,62.101 15.866,62.101 15.867,62.101 L44.533,78.641 L44.533,88.596 L7.001,66.955 L7.001,23.582 Z" id="Shape"></path>
        </g>
    </g>
</svg>