<?xml version="1.0" encoding="UTF-8"?>
<svg width="90px" height="90px" viewBox="0 0 90 90" version="1.1" xmlns="http://www.w3.org/2000/svg" xmlns:xlink="http://www.w3.org/1999/xlink">
    <!-- Generator: Sketch 46.2 (44496) - http://www.bohemiancoding.com/sketch -->
    <title>Artboard</title>
    <desc>Created with Sketch.</desc>
    <defs></defs>
    <g id="Page-1" stroke="none" stroke-width="1" fill="none" fill-rule="evenodd">
        <g id="Artboard">
            <g id="danger" transform="translate(0.000000, 5.000000)">
                <path d="M87.2554455,66.1990099 L52.4584158,5.94356436 C50.2841584,2.17425743 47.4237624,0.294059406 44.5544554,0.294059406 C41.6851485,0.294059406 38.8247525,2.17425743 36.650495,5.94356436 L1.8980198,66.1990099 C-2.4950495,73.7376238 1.06930693,79.9039604 9.8019802,79.9039604 L79.3069307,79.9039604 C88.039604,79.9039604 91.6039604,73.7376238 87.2554455,66.1990099 Z" id="Shape" fill="#FFE079" fill-rule="nonzero"></path>
                <polygon id="Path" fill="#FFFFFF" points="40.0277228 30.6712871 49.090099 30.6712871 49.090099 51.7544554 40.0188119 51.7544554 40.0188119 30.6712871"></polygon>
                <path d="M44.4544554,65.4237624 C41.7132639,65.4237624 39.4910891,63.2015876 39.4910891,60.460396 C39.4910891,57.7192045 41.7132639,55.4970297 44.4544554,55.4970297 C47.195647,55.4970297 49.4178218,57.7192045 49.4178218,60.460396 C49.4201928,61.7798514 48.8970908,63.0459476 47.9640935,63.9789449 C47.0310961,64.9119423 45.7649999,65.4350443 44.4455446,65.4326733 L44.4544554,65.4237624 Z" id="Path" fill="#FFFFFF"></path>
            </g>
        </g>
    </g>
</svg>